{"title":"Dr.Goldfoot.And.The.Bikini.Machine.1965.1080p.BluRay.x264-GHOULS","uid":14661464,"size":7043316496,"categoryP":"video","categoryS":"hd___movies","magnet":"?xt=urn:btih:45d64d3719ef67806840532ef01653c023a702d4&amp;dn=Dr.Goldfoot.And.The.Bikini.Machine.1965.1080p.BluRay.x264-GHOULS&amp;tr=udp%3A%2F%2Ftracker.leechers-paradise.org%3A6969&amp;tr=udp%3A%2F%2Fzer0day.ch%3A1337&amp;tr=udp%3A%2F%2Fopen.demonii.com%3A1337&amp;tr=udp%3A%2F%2Ftracker.coppersurfer.tk%3A6969&amp;tr=udp%3A%2F%2Fexodus.desync.com%3A6969","seeders":0,"leechers":2,"uploader":null,"files":3,"time":1463757174,"description":"\nDr.Goldfoot.And.The.Bikini.Machine.1965.1080p.BluRay.x264-GHOULS.mkv\r\n\r\nGenres: Comedy , Sci-Fi\r\nActors: Vincent Price , Frankie Avalon , Dwayne Hickman , Susan Hart\r\nDirector: Norman Taurog\r\nRuntime: 88\r\nYear: 1965\r\n\r\nPlot: Dr. Goldfoot plans on taking over the world with his beautiful female robots who seduce rich and powerful men. \r\n\r\nMediaInfo\r\n\r\nVideo\r\nID : 1\r\nFormat : AVC\r\nFormat/Info : Advanced Video Codec\r\nFormat profile :   \r\nFormat settings, CABAC : Yes\r\nFormat settings, ReFrames : 5 frames\r\nCodec ID : V_MPEG4/ISO/AVC\r\nDuration : 1h 33mn\r\nBit rate : 9 165 Kbps\r\nNominal bit rate : 9 914 Kbps\r\nWidth : 1 920 pixels\r\nHeight : 824 pixels\r\nDisplay aspect ratio : 2.35:1\r\nFrame rate mode : Constant\r\nFrame rate : 23.976 (24000/1001) fps\r\nColor space : YUV\r\nChroma subsampling : 4:2:0\r\nBit depth : 8 bits\r\nScan type : Progressive\r\nBits/(Pixel*Frame) : 0.242\r\nStream size : 6.01 GiB (92%)\r\nWriting library : x264 core 148 r2638 7599210\r\nEncoding settings : cabac=1 / ref=5 / deblock=1:-1:-1 / analyse=0x3:0x133 / me=umh / subme=7 / psy=1 / psy_rd=1.00:0.00 / mixed_ref=1 / me_range=16 / chroma_me=1 / trellis=1 / 8x8dct=1 / cqm=0 / deadzone=21,11 / fast_pskip=0 / chroma_qp_offset=-2 / threads=26 / lookahead_threads=4 / sliced_threads=0 / nr=0 / decimate=1 / interlaced=0 / bluray_compat=0 / constrained_intra=0 / bframes=3 / b_pyramid=2 / b_adapt=2 / b_bias=0 / direct=3 / weightb=1 / open_gop=0 / weightp=2 / keyint=240 / keyint_min=23 / scenecut=40 / intra_refresh=0 / rc_lookahead=50 / rc=2pass / mbtree=1 / bitrate=9914 / ratetol=1.0 / qcomp=0.60 / qpmin=10 / qpmax=51 / qpstep=4 / cplxblur=20.0 / qblur=0.5 / vbv_maxrate=62500 / vbv_bufsize=78125 / nal_hrd=none / filler=0 / ip_ratio=1.40 / aq=1:1.00\r\nDefault : Yes\r\nForced : No\r\n\r\nAudio\r\nID : 2\r\nFormat : AC-3\r\nFormat/Info : Audio Coding 3\r\nMode extension : CM (complete main)\r\nFormat settings, Endianness : Big\r\nCodec ID : A_AC3\r\nDuration : 1h 33mn\r\nBit rate mode : Constant\r\nBit rate : 640 Kbps\r\nChannel(s) : 1 channel\r\nChannel positions : Front: C\r\nSampling rate : 48.0 KHz\r\nFrame rate : 31.250 fps (1536 spf)\r\nCompression mode : Lossy\r\nStream size : 430 MiB (6%)\r\nLanguage : English\r\nDefault : Yes\r\nForced : No","torrent":{"xt":"urn:btih:45d64d3719ef67806840532ef01653c023a702d4","amp;dn":"Dr.Goldfoot.And.The.Bikini.Machine.1965.1080p.BluRay.x264-GHOULS","amp;tr":["udp%3A%2F%2Ftracker.leechers-paradise.org%3A6969","udp%3A%2F%2Fzer0day.ch%3A1337","udp%3A%2F%2Fopen.demonii.com%3A1337","udp%3A%2F%2Ftracker.coppersurfer.tk%3A6969","udp%3A%2F%2Fexodus.desync.com%3A6969"],"infoHash":"45d64d3719ef67806840532ef01653c023a702d4","infoHashBuffer":{"type":"Buffer","data":[69,214,77,55,25,239,103,128,104,64,83,46,240,22,83,192,35,167,2,212]},"announce":[],"urlList":[]}}